<?xml version="1.0" standalone="no"?><!DOCTYPE svg PUBLIC "-//W3C//DTD SVG 1.1//EN" "http://www.w3.org/Graphics/SVG/1.1/DTD/svg11.dtd"><svg t="1504492280369" class="icon" style="" viewBox="0 0 1024 1024" version="1.1" xmlns="http://www.w3.org/2000/svg" p-id="3829" xmlns:xlink="http://www.w3.org/1999/xlink" width="200" height="200"><defs><style type="text/css"></style></defs><path d="M969.6 745.6H896c-9.6-70.4-70.4-121.6-144-121.6s-137.6 51.2-144 121.6h-54.4c-32 0-54.4-25.6-54.4-51.2v-480c0-28.8 22.4-51.2 54.4-51.2h419.2c28.8-3.2 51.2 22.4 51.2 48v480c0 28.8-22.4 54.4-54.4 54.4z m-566.4 0h-38.4c-9.6-70.4-70.4-121.6-144-121.6s-137.6 51.2-144 121.6H38.4c-19.2 0-38.4-16-38.4-35.2v-195.2c0-70.4 124.8-249.6 185.6-249.6h217.6c19.2 0 38.4 16 38.4 35.2v406.4c0 22.4-19.2 38.4-38.4 38.4z m-76.8-390.4s-57.6-3.2-124.8 0c-32 0-108.8 105.6-108.8 160v16h240V352h-6.4v3.2z m-108.8 320c51.2 0 92.8 38.4 92.8 86.4s-41.6 86.4-92.8 86.4-92.8-38.4-92.8-86.4c0-48 41.6-86.4 92.8-86.4z m537.6 0c54.4 0 96 41.6 96 96 0 51.2-44.8 96-96 96-54.4 0-96-41.6-96-96s41.6-96 96-96z m0 0z" p-id="3830"></path></svg>