<?xml version="1.0" standalone="no"?><!DOCTYPE svg PUBLIC "-//W3C//DTD SVG 1.1//EN" "http://www.w3.org/Graphics/SVG/1.1/DTD/svg11.dtd"><svg t="1502855036176" class="icon" style="" viewBox="0 0 1024 1024" version="1.1" xmlns="http://www.w3.org/2000/svg" p-id="5204" xmlns:xlink="http://www.w3.org/1999/xlink" width="200" height="200"><defs><style type="text/css"></style></defs><path d="M536.386922 34.759665c-237.366106 0-429.788603 158.061922-429.788603 353.039615 0 89.285512 40.359196 170.823574 106.898659 232.992495l-48.666396 160.613024 260.055874-52.590775c35.561937 7.826246 72.931033 12.026918 111.499443 12.026918 237.365082 0 429.788603-158.061922 429.788603-353.041662C966.175525 192.821587 773.752004 34.759665 536.386922 34.759665zM536.386922 707.21817c-9.66308 0-19.243273-0.284479-28.734438-0.825808l-0.225127-0.248663c-12.117992-0.645706-24.085558-1.695618-35.880185-3.128247-11.840676-1.548262-23.51046-3.507894-34.976606-5.870708l-13.485129 3.26844-215.926818 40.320311 41.364083-132.155902c-2.62785-2.033309-5.203512-4.103458-7.753591-6.192026-64.294328-56.703443-103.47263-131.982964-103.47263-214.58731 0-176.408779 178.677449-319.416843 399.089417-319.416843 220.410945 0 399.089417 143.008065 399.089417 319.416843C935.476339 564.210106 756.797867 707.21817 536.386922 707.21817z" p-id="5205"></path><path d="M307.67901 296.934806c-36.676317 0-66.514903 29.838585-66.514903 66.514903s29.838585 66.514903 66.514903 66.514903 66.514903-29.838585 66.514903-66.514903S344.355327 296.934806 307.67901 296.934806zM307.67901 399.265426c-19.748786 0-35.815717-16.066931-35.815717-35.815717s16.066931-35.815717 35.815717-35.815717 35.815717 16.066931 35.815717 35.815717S327.427796 399.265426 307.67901 399.265426z" p-id="5206"></path><path d="M538.94621 296.934806c-36.676317 0-66.514903 29.838585-66.514903 66.514903s29.838585 66.514903 66.514903 66.514903 66.514903-29.838585 66.514903-66.514903S575.622528 296.934806 538.94621 296.934806zM538.94621 399.265426c-19.748786 0-35.815717-16.066931-35.815717-35.815717s16.066931-35.815717 35.815717-35.815717 35.815717 16.066931 35.815717 35.815717S558.694997 399.265426 538.94621 399.265426z" p-id="5207"></path><path d="M764.073574 296.934806c-36.676317 0-66.514903 29.838585-66.514903 66.514903s29.838585 66.514903 66.514903 66.514903 66.514903-29.838585 66.514903-66.514903S800.749892 296.934806 764.073574 296.934806zM764.073574 399.265426c-19.748786 0-35.815717-16.066931-35.815717-35.815717s16.066931-35.815717 35.815717-35.815717 35.815717 16.066931 35.815717 35.815717S783.82236 399.265426 764.073574 399.265426z" p-id="5208" fill="#666"></path></svg>