<?xml version="1.0" standalone="no"?><!DOCTYPE svg PUBLIC "-//W3C//DTD SVG 1.1//EN" "http://www.w3.org/Graphics/SVG/1.1/DTD/svg11.dtd"><svg t="1502855056630" class="icon" style="" viewBox="0 0 1024 1024" version="1.1" xmlns="http://www.w3.org/2000/svg" p-id="5919" xmlns:xlink="http://www.w3.org/1999/xlink" width="200" height="200"><defs><style type="text/css"></style></defs><path d="M763.083014 410.484955c23.183002 0 41.916668 18.794042 41.916668 41.956577l0 423.195441c0 23.203468-18.733667 41.916668-41.916668 41.916668L256.013303 917.553643c-23.159466 0-41.937135-18.7132-41.937135-41.916668L214.076168 452.441533c0-23.162536 18.777669-41.956577 41.937135-41.956577L763.083014 410.484955M763.083014 368.506888 256.013303 368.506888c-46.282093 0-83.914178 37.652552-83.914178 83.934644l0 423.195441c0 46.261627 37.632085 83.893712 83.914178 83.893712L763.083014 959.530686c46.261627 0 83.893712-37.632085 83.893712-83.893712L846.976726 452.441533C846.976726 406.15944 809.34464 368.506888 763.083014 368.506888" p-id="5920"></path><path d="M509.517971 540.821419c40.562834 0 73.460082 32.816406 73.460082 73.359798 0 30.622438-18.796088 56.816007-45.461401 67.845201l0 77.292364c0 15.35164-12.565177 27.894304-28.03859 27.894304-15.373129 0-27.875884-12.542664-27.875884-27.894304L481.602178 682.026418c-26.66736-11.008728-45.421492-37.201274-45.421492-67.845201C436.180685 573.637826 468.976626 540.821419 509.517971 540.821419M509.517971 498.845399c-63.582107 0-115.314329 51.734268-115.314329 115.335818 0 36.70804 17.154705 70.304206 45.420469 91.784426l0 53.353139c0 38.534642 31.318286 69.871347 69.852928 69.871347 38.593993 0 70.016657-31.336706 70.016657-69.871347l0-53.373605c28.287253-21.459754 45.461401-55.075363 45.461401-91.76396C624.95612 550.579667 573.179896 498.845399 509.517971 498.845399" p-id="5921"></path><path d="M313.159838 404.683832c-11.601222 0-20.990057-9.387811-20.990057-20.990057L292.169781 280.966113c0-119.846552 97.504708-217.34819 217.34819-217.34819 119.863948 0 217.369679 97.501638 217.369679 217.34819 0 11.601222-9.388834 20.986987-20.99108 20.986987s-20.986987-9.385764-20.986987-20.986987c0-96.703459-78.688153-175.371146-175.391612-175.371146-96.703459 0-175.370123 78.666664-175.370123 175.371146l0 102.728686C334.147848 395.296021 324.76106 404.683832 313.159838 404.683832z" p-id="5922" fill="#666"></path></svg>